<svg width="50" height="19" viewBox="0 0 50 19" fill="none" xmlns="http://www.w3.org/2000/svg">
<path d="M8.88906 2.35L4.89906 10.12L3.07906 10.54C3.26573 10.12 3.5224 9.77 3.84906 9.49C4.2224 9.16333 4.6424 9 5.10906 9C5.99573 9 6.78906 9.35 7.48906 10.05C8.23573 10.75 8.60906 11.66 8.60906 12.78C8.60906 13.9 8.18906 14.88 7.34906 15.72C6.55573 16.5133 5.59906 16.91 4.47906 16.91C3.40573 16.91 2.4724 16.5133 1.67906 15.72C0.885729 14.88 0.489063 13.9 0.489063 12.78C0.489063 12.3133 0.559063 11.7767 0.699063 11.17C0.885729 10.5167 1.23573 9.67667 1.74906 8.65L5.87906 0.739996L8.88906 2.35ZM20.3691 2.35L16.3791 10.12L14.5591 10.54C14.7457 10.12 15.0024 9.77 15.3291 9.49C15.7024 9.16333 16.1224 9 16.5891 9C17.4757 9 18.2691 9.35 18.9691 10.05C19.7157 10.75 20.0891 11.66 20.0891 12.78C20.0891 13.9 19.6691 14.88 18.8291 15.72C18.0357 16.5133 17.0791 16.91 15.9591 16.91C14.8857 16.91 13.9524 16.5133 13.1591 15.72C12.3657 14.88 11.9691 13.9 11.9691 12.78C11.9691 12.3133 12.0391 11.7767 12.1791 11.17C12.3657 10.5167 12.7157 9.67667 13.2291 8.65L17.3591 0.739996L20.3691 2.35ZM41.17 16.63L45.16 8.86L46.91 8.44C46.7233 8.90666 46.4667 9.28 46.14 9.56C45.8133 9.84 45.4167 9.98 44.95 9.98C44.0633 9.98 43.2467 9.63 42.5 8.93C41.8 8.23 41.45 7.34333 41.45 6.27C41.45 5.10333 41.8467 4.12333 42.64 3.33C43.4333 2.53666 44.39 2.14 45.51 2.14C46.5833 2.14 47.5167 2.53666 48.31 3.33C49.15 4.12333 49.57 5.10333 49.57 6.27C49.57 6.73666 49.4767 7.29667 49.29 7.95C49.15 8.55666 48.8233 9.35 48.31 10.33L44.11 18.24L41.17 16.63ZM29.69 16.63L33.68 8.86L35.43 8.44C35.2433 8.90666 34.9867 9.28 34.66 9.56C34.3333 9.84 33.9367 9.98 33.47 9.98C32.5833 9.98 31.7667 9.63 31.02 8.93C30.32 8.23 29.97 7.34333 29.97 6.27C29.97 5.10333 30.3667 4.12333 31.16 3.33C31.9533 2.53666 32.91 2.14 34.03 2.14C35.1033 2.14 36.0367 2.53666 36.83 3.33C37.67 4.12333 38.09 5.10333 38.09 6.27C38.09 6.73666 37.9967 7.29667 37.81 7.95C37.67 8.55666 37.3433 9.35 36.83 10.33L32.63 18.24L29.69 16.63Z" fill="white"/>
</svg>
