<svg width="24" height="24" viewBox="0 0 24 24" fill="none" xmlns="http://www.w3.org/2000/svg">
<g clip-path="url(#clip0_1232_95)">
<path d="M10.89 2.5381C11.1941 2.33513 11.5481 2.21941 11.9134 2.20354C12.2787 2.18768 12.6414 2.27226 12.962 2.4481L13.109 2.5381L21.109 7.8711C21.3596 8.03812 21.5693 8.25958 21.7224 8.51897C21.8754 8.77836 21.968 9.06896 21.993 9.3691L22 9.5351V19.0001C22.0002 19.5047 21.8096 19.9907 21.4665 20.3607C21.1234 20.7306 20.6532 20.9573 20.15 20.9951L20 21.0001H4C3.49542 21.0003 3.00943 20.8097 2.63945 20.4666C2.26947 20.1235 2.04284 19.6533 2.005 19.1501L2 19.0001V9.5351C2.00001 9.234 2.06799 8.93679 2.1989 8.66564C2.3298 8.39448 2.52024 8.15638 2.756 7.9691L2.891 7.8711L10.89 2.5381ZM12 4.2021L4.803 9.0001L12 13.7981L19.197 9.0001L12 4.2021Z" fill="url(#paint0_linear_1232_95)"/>
</g>
<defs>
<linearGradient id="paint0_linear_1232_95" x1="5.37423" y1="21.0001" x2="22.758" y2="20.3471" gradientUnits="userSpaceOnUse">
<stop stop-color="#02FFE2"/>
<stop offset="0.421875" stop-color="#6A78F2"/>
<stop offset="1" stop-color="#C108FE"/>
</linearGradient>
<clipPath id="clip0_1232_95">
<rect width="24" height="24" fill="white"/>
</clipPath>
</defs>
</svg>
