<svg width="20" height="20" viewBox="0 0 20 20" fill="none" xmlns="http://www.w3.org/2000/svg">
<path d="M10.0003 1.66675C8.90598 1.66675 7.82234 1.8823 6.8113 2.30109C5.80025 2.71987 4.88159 3.3337 4.10777 4.10752C2.54497 5.67033 1.66699 7.78994 1.66699 10.0001C1.66699 13.6834 4.05866 16.8084 7.36699 17.9167C7.78366 17.9834 7.91699 17.7251 7.91699 17.5001V16.0917C5.60866 16.5917 5.11699 14.9751 5.11699 14.9751C4.73366 14.0084 4.19199 13.7501 4.19199 13.7501C3.43366 13.2334 4.25033 13.2501 4.25033 13.2501C5.08366 13.3084 5.52533 14.1084 5.52533 14.1084C6.25033 15.3751 7.47533 15.0001 7.95033 14.8001C8.02533 14.2584 8.24199 13.8917 8.47533 13.6834C6.62533 13.4751 4.68366 12.7584 4.68366 9.58342C4.68366 8.65841 5.00033 7.91675 5.54199 7.32508C5.45866 7.11675 5.16699 6.25008 5.62533 5.12508C5.62533 5.12508 6.32533 4.90008 7.91699 5.97508C8.57533 5.79175 9.29199 5.70008 10.0003 5.70008C10.7087 5.70008 11.4253 5.79175 12.0837 5.97508C13.6753 4.90008 14.3753 5.12508 14.3753 5.12508C14.8337 6.25008 14.542 7.11675 14.4587 7.32508C15.0003 7.91675 15.317 8.65841 15.317 9.58342C15.317 12.7667 13.367 13.4667 11.5087 13.6751C11.8087 13.9334 12.0837 14.4417 12.0837 15.2167V17.5001C12.0837 17.7251 12.217 17.9917 12.642 17.9167C15.9503 16.8001 18.3337 13.6834 18.3337 10.0001C18.3337 8.90573 18.1181 7.8221 17.6993 6.81105C17.2805 5.80001 16.6667 4.88135 15.8929 4.10752C15.1191 3.3337 14.2004 2.71987 13.1894 2.30109C12.1783 1.8823 11.0947 1.66675 10.0003 1.66675Z" fill="#D9D9D9"/>
</svg>
