<svg width="327" height="477" viewBox="0 0 327 477" fill="none" xmlns="http://www.w3.org/2000/svg">
<g filter="url(#filter0_d_1214_218)">
<mask id="path-1-outside-1_1214_218" maskUnits="userSpaceOnUse" x="49" y="49" width="229" height="379" fill="black">
<rect fill="white" x="49" y="49" width="229" height="379"/>
<path d="M138.477 287.5L132.977 192.5H157.977C164.977 192.5 171.143 191.333 176.477 189C181.81 186.333 185.81 182.667 188.477 178C191.477 173.333 192.977 168 192.977 162C192.977 155.667 191.477 150.333 188.477 146C185.81 141.333 181.977 137.833 176.977 135.5C172.31 133.167 166.643 132 159.977 132C148.643 132 138.143 135.5 128.477 142.5C118.81 149.5 110.81 158.167 104.477 168.5L50.9766 116.5C60.9766 97.5 75.4766 81.8333 94.4766 69.5C113.81 56.8333 136.977 50.5 163.977 50.5C185.977 50.5 205.477 55.3333 222.477 65C239.477 74.3333 252.643 87 261.977 103C271.643 118.667 276.477 136.167 276.477 155.5C276.477 176.167 272.31 193.5 263.977 207.5C255.977 221.5 245.143 232.667 231.477 241C218.143 249.333 203.477 255.333 187.477 259L209.477 227L205.477 287.5H138.477ZM171.977 426.5C157.643 426.5 145.643 421.667 135.977 412C126.643 402.333 121.977 390.333 121.977 376C121.977 361.667 126.643 349.667 135.977 340C145.643 330.333 157.643 325.5 171.977 325.5C186.31 325.5 198.143 330.333 207.477 340C216.81 349.667 221.477 361.667 221.477 376C221.477 390.333 216.81 402.333 207.477 412C198.143 421.667 186.31 426.5 171.977 426.5Z"/>
</mask>
<path d="M138.477 287.5L137.478 287.558L137.533 288.5H138.477V287.5ZM132.977 192.5V191.5H131.917L131.978 192.558L132.977 192.5ZM176.477 189L176.877 189.916L176.901 189.906L176.924 189.894L176.477 189ZM188.477 178L187.635 177.459L187.621 177.481L187.608 177.504L188.477 178ZM188.477 146L187.608 146.496L187.63 146.534L187.654 146.569L188.477 146ZM176.977 135.5L176.529 136.394L176.541 136.4L176.554 136.406L176.977 135.5ZM128.477 142.5L127.89 141.69L128.477 142.5ZM104.477 168.5L103.78 169.217L104.676 170.088L105.329 169.023L104.477 168.5ZM50.9766 116.5L50.0916 116.034L49.7434 116.696L50.2796 117.217L50.9766 116.5ZM94.4766 69.5L95.021 70.3388L95.0246 70.3365L94.4766 69.5ZM222.477 65L221.982 65.8693L221.989 65.873L221.995 65.8766L222.477 65ZM261.977 103L261.113 103.504L261.119 103.515L261.126 103.525L261.977 103ZM263.977 207.5L263.117 206.988L263.113 206.996L263.108 207.004L263.977 207.5ZM231.477 241L230.956 240.146L230.947 240.152L231.477 241ZM187.477 259L186.653 258.433L185.199 260.548L187.7 259.975L187.477 259ZM209.477 227L210.474 227.066L210.715 223.434L208.653 226.433L209.477 227ZM205.477 287.5V288.5H206.413L206.474 287.566L205.477 287.5ZM135.977 412L135.257 412.695L135.263 412.701L135.269 412.707L135.977 412ZM135.977 340L135.269 339.293L135.263 339.299L135.257 339.305L135.977 340ZM207.477 340L206.757 340.695L207.477 340ZM207.477 412L206.757 411.305L207.477 412ZM139.475 287.442L133.975 192.442L131.978 192.558L137.478 287.558L139.475 287.442ZM132.977 193.5H157.977V191.5H132.977V193.5ZM157.977 193.5C165.087 193.5 171.395 192.315 176.877 189.916L176.076 188.084C170.892 190.352 164.866 191.5 157.977 191.5V193.5ZM176.924 189.894C182.414 187.15 186.57 183.353 189.345 178.496L187.608 177.504C185.05 181.981 181.206 185.517 176.029 188.106L176.924 189.894ZM189.318 178.541C192.43 173.7 193.977 168.175 193.977 162H191.977C191.977 167.825 190.523 172.967 187.635 177.459L189.318 178.541ZM193.977 162C193.977 155.505 192.436 149.963 189.299 145.431L187.654 146.569C190.517 150.704 191.977 155.828 191.977 162H193.977ZM189.345 145.504C186.573 140.653 182.581 137.012 177.399 134.594L176.554 136.406C181.372 138.655 185.047 142.014 187.608 146.496L189.345 145.504ZM177.424 134.606C172.585 132.186 166.757 131 159.977 131V133C166.53 133 172.035 134.147 176.529 136.394L177.424 134.606ZM159.977 131C148.421 131 137.718 134.573 127.89 141.69L129.063 143.31C138.569 136.426 148.865 133 159.977 133V131ZM127.89 141.69C118.115 148.769 110.025 157.533 103.624 167.977L105.329 169.023C111.595 158.8 119.505 150.231 129.063 143.31L127.89 141.69ZM105.174 167.783L51.6735 115.783L50.2796 117.217L103.78 169.217L105.174 167.783ZM51.8615 116.966C61.7774 98.1256 76.1564 82.5843 95.021 70.3388L93.9321 68.6612C74.7967 81.0824 60.1758 96.8744 50.0916 116.034L51.8615 116.966ZM95.0246 70.3365C114.169 57.7934 137.138 51.5 163.977 51.5V49.5C136.815 49.5 113.451 55.8732 93.9285 68.6635L95.0246 70.3365ZM163.977 51.5C185.825 51.5 205.151 56.2986 221.982 65.8693L222.971 64.1307C205.802 54.3681 186.128 49.5 163.977 49.5V51.5ZM221.995 65.8766C238.844 75.1269 251.875 87.668 261.113 103.504L262.84 102.496C253.411 86.332 240.109 73.5397 222.958 64.1234L221.995 65.8766ZM261.126 103.525C270.69 119.026 275.477 136.342 275.477 155.5H277.477C277.477 135.991 272.597 118.307 262.828 102.475L261.126 103.525ZM275.477 155.5C275.477 176.034 271.337 193.18 263.117 206.988L264.836 208.011C273.283 193.82 277.477 176.299 277.477 155.5H275.477ZM263.108 207.004C255.191 220.858 244.477 231.901 230.956 240.146L231.997 241.854C245.809 233.432 256.762 222.142 264.845 207.996L263.108 207.004ZM230.947 240.152C217.712 248.424 203.149 254.382 187.253 258.025L187.7 259.975C203.804 256.284 218.575 250.243 232.007 241.848L230.947 240.152ZM188.301 259.567L210.301 227.567L208.653 226.433L186.653 258.433L188.301 259.567ZM208.479 226.934L204.479 287.434L206.474 287.566L210.474 227.066L208.479 226.934ZM205.477 286.5H138.477V288.5H205.477V286.5ZM171.977 425.5C157.894 425.5 146.153 420.762 136.684 411.293L135.269 412.707C145.134 422.571 157.392 427.5 171.977 427.5V425.5ZM136.696 411.305C127.555 401.838 122.977 390.093 122.977 376H120.977C120.977 390.573 125.731 402.828 135.257 412.695L136.696 411.305ZM122.977 376C122.977 361.907 127.555 350.162 136.696 340.695L135.257 339.305C125.731 349.172 120.977 361.427 120.977 376H122.977ZM136.684 340.707C146.153 331.238 157.894 326.5 171.977 326.5V324.5C157.392 324.5 145.134 329.429 135.269 339.293L136.684 340.707ZM171.977 326.5C186.059 326.5 197.626 331.237 206.757 340.695L208.196 339.305C198.661 329.43 186.561 324.5 171.977 324.5V326.5ZM206.757 340.695C215.898 350.162 220.477 361.907 220.477 376H222.477C222.477 361.427 217.722 349.172 208.196 339.305L206.757 340.695ZM220.477 376C220.477 390.093 215.898 401.838 206.757 411.305L208.196 412.695C217.722 402.828 222.477 390.573 222.477 376H220.477ZM206.757 411.305C197.626 420.763 186.059 425.5 171.977 425.5V427.5C186.561 427.5 198.661 422.57 208.196 412.695L206.757 411.305Z" fill="url(#paint0_linear_1214_218)" mask="url(#path-1-outside-1_1214_218)"/>
</g>
<defs>
<filter id="filter0_d_1214_218" x="0.976562" y="0.5" width="325.5" height="476" filterUnits="userSpaceOnUse" color-interpolation-filters="sRGB">
<feFlood flood-opacity="0" result="BackgroundImageFix"/>
<feColorMatrix in="SourceAlpha" type="matrix" values="0 0 0 0 0 0 0 0 0 0 0 0 0 0 0 0 0 0 127 0" result="hardAlpha"/>
<feOffset/>
<feGaussianBlur stdDeviation="25"/>
<feComposite in2="hardAlpha" operator="out"/>
<feColorMatrix type="matrix" values="0 0 0 0 0.85098 0 0 0 0 0.85098 0 0 0 0 0.85098 0 0 0 0.4 0"/>
<feBlend mode="normal" in2="BackgroundImageFix" result="effect1_dropShadow_1214_218"/>
<feBlend mode="normal" in="SourceGraphic" in2="effect1_dropShadow_1214_218" result="shape"/>
</filter>
<linearGradient id="paint0_linear_1214_218" x1="20.4019" y1="458" x2="403.933" y2="446.879" gradientUnits="userSpaceOnUse">
<stop stop-color="#02FFE2"/>
<stop offset="0.421875" stop-color="#6A78F2"/>
<stop offset="1" stop-color="#C108FE"/>
</linearGradient>
</defs>
</svg>
