<svg width="20" height="20" viewBox="0 0 20 20" fill="none" xmlns="http://www.w3.org/2000/svg">
<path d="M5.43932 12.0949C5.43822 12.5294 5.2652 12.9458 4.95806 13.2531C4.65092 13.5604 4.23463 13.7336 3.80016 13.7349C3.36554 13.7338 2.94904 13.5607 2.64172 13.2534C2.33439 12.946 2.16126 12.5295 2.16016 12.0949C2.16016 11.1924 2.89766 10.4549 3.80016 10.4549H5.43932V12.0949ZM6.26599 12.0949C6.26599 11.1924 7.00349 10.4549 7.90599 10.4549C8.80849 10.4549 9.54516 11.1924 9.54516 12.0949V16.2007C9.54406 16.6352 9.37103 17.0516 9.06389 17.3589C8.75675 17.6662 8.34046 17.8394 7.90599 17.8407C7.47137 17.8396 7.05487 17.6665 6.74755 17.3592C6.44023 17.0519 6.26709 16.6354 6.26599 16.2007V12.0949ZM7.90599 5.43908C7.47152 5.43798 7.05514 5.26496 6.74784 4.95781C6.44055 4.65067 6.26731 4.23438 6.26599 3.79991C6.26599 2.89741 7.00349 2.15991 7.90599 2.15991C8.80849 2.15991 9.54516 2.89741 9.54516 3.79991V5.43908H7.90599ZM7.90599 6.26575C8.80849 6.26575 9.54516 7.00325 9.54516 7.90575C9.54384 8.34007 9.37072 8.75624 9.0636 9.06335C8.75648 9.37047 8.34032 9.54359 7.90599 9.54491H3.80016C3.36568 9.54381 2.94931 9.37079 2.64201 9.06365C2.33471 8.75651 2.16148 8.34022 2.16016 7.90575C2.16016 7.00325 2.89766 6.26575 3.80016 6.26575H7.90599ZM14.561 7.90575C14.561 7.00325 15.2985 6.26575 16.201 6.26575C17.1035 6.26575 17.841 7.00325 17.841 7.90575C17.8397 8.34022 17.6664 8.75651 17.3591 9.06365C17.0518 9.37079 16.6355 9.54381 16.201 9.54491H14.561V7.90575ZM13.7352 7.90575C13.7338 8.34022 13.5606 8.75651 13.2533 9.06365C12.946 9.37079 12.5296 9.54381 12.0952 9.54491C11.6607 9.54381 11.2443 9.37079 10.937 9.06365C10.6297 8.75651 10.4565 8.34022 10.4552 7.90575V3.79991C10.4552 2.89741 11.1927 2.15991 12.0952 2.15991C12.9977 2.15991 13.7352 2.89741 13.7352 3.79991V7.90575ZM12.0952 14.5607C12.9977 14.5607 13.7352 15.2982 13.7352 16.2007C13.7341 16.6354 13.5609 17.0519 13.2536 17.3592C12.9463 17.6665 12.5298 17.8396 12.0952 17.8407C11.6605 17.8396 11.244 17.6665 10.9367 17.3592C10.6294 17.0519 10.4563 16.6354 10.4552 16.2007V14.5607H12.0952ZM12.0952 13.7349C11.6605 13.7338 11.244 13.5607 10.9367 13.2534C10.6294 12.946 10.4563 12.5295 10.4552 12.0949C10.4552 11.1924 11.1927 10.4549 12.0952 10.4549H16.201C17.1035 10.4549 17.841 11.1924 17.841 12.0949C17.8399 12.5295 17.6668 12.946 17.3594 13.2534C17.0521 13.5607 16.6356 13.7338 16.201 13.7349H12.0952Z" fill="#D9D9D9"/>
</svg>
