<svg width="20" height="20" viewBox="0 0 20 20" fill="none" xmlns="http://www.w3.org/2000/svg">
<path d="M18.7165 4.99992C18.0749 5.29159 17.3832 5.48325 16.6665 5.57492C17.3999 5.13325 17.9665 4.43325 18.2332 3.59159C17.5415 4.00825 16.7749 4.29992 15.9665 4.46659C15.3082 3.74992 14.3832 3.33325 13.3332 3.33325C11.3749 3.33325 9.77487 4.93325 9.77487 6.90825C9.77487 7.19159 9.8082 7.46659 9.86654 7.72492C6.89987 7.57492 4.2582 6.14992 2.49987 3.99159C2.19154 4.51659 2.01654 5.13325 2.01654 5.78325C2.01654 7.02492 2.64154 8.12492 3.6082 8.74992C3.01654 8.74992 2.46654 8.58325 1.9832 8.33325V8.35825C1.9832 10.0916 3.21654 11.5416 4.84987 11.8666C4.32548 12.0101 3.77495 12.0301 3.24154 11.9249C3.46788 12.6353 3.91115 13.2569 4.50905 13.7024C5.10695 14.1478 5.82941 14.3947 6.57487 14.4083C5.31123 15.4086 3.74487 15.9493 2.1332 15.9416C1.84987 15.9416 1.56654 15.9249 1.2832 15.8916C2.86654 16.9083 4.74987 17.4999 6.76654 17.4999C13.3332 17.4999 16.9415 12.0499 16.9415 7.32492C16.9415 7.16659 16.9415 7.01659 16.9332 6.85825C17.6332 6.35825 18.2332 5.72492 18.7165 4.99992Z" fill="#D9D9D9"/>
</svg>
